{
	"accessors" : 
	[
		{
			"bufferView" : 2,
			"byteOffset" : 0,
			"componentType" : 5126,
			"count" : 5020,
			"max" : 
			[
				1,
				1,
				1,
				1
			],
			"min" : 
			[
				0.006584956776350737,
				0.006584956776350737,
				0,
				1
			],
			"name" : "accessor_color_m0-PolyPaper20_-306154",
			"type" : "VEC4"
		},
		{
			"bufferView" : 2,
			"byteOffset" : 80320,
			"componentType" : 5126,
			"count" : 38,
			"max" : 
			[
				1,
				1,
				1,
				1
			],
			"min" : 
			[
				1,
				1,
				1,
				1
			],
			"name" : "accessor_color_m1-PolyGem25_-306134",
			"type" : "VEC4"
		},
		{
			"bufferView" : 0,
			"byteOffset" : 0,
			"componentType" : 5123,
			"count" : 7710,
			"max" : 
			[
				5019
			],
			"min" : 
			[
				0
			],
			"name" : "accessor_indices_0_m0-PolyPaper20_-306154",
			"type" : "SCALAR"
		},
		{
			"bufferView" : 0,
			"byteOffset" : 15420,
			"componentType" : 5123,
			"count" : 48,
			"max" : 
			[
				37
			],
			"min" : 
			[
				0
			],
			"name" : "accessor_indices_0_m1-PolyGem25_-306134",
			"type" : "SCALAR"
		},
		{
			"bufferView" : 1,
			"byteOffset" : 60240,
			"componentType" : 5126,
			"count" : 5020,
			"max" : 
			[
				1,
				1,
				1
			],
			"min" : 
			[
				-1,
				-1,
				-1
			],
			"name" : "accessor_normal_m0-PolyPaper20_-306154",
			"type" : "VEC3"
		},
		{
			"bufferView" : 1,
			"byteOffset" : 120936,
			"componentType" : 5126,
			"count" : 38,
			"max" : 
			[
				-0.08169247,
				0.9701422,
				0.8453728
			],
			"min" : 
			[
				-0.8574936,
				0.4779125,
				-0.8473148
			],
			"name" : "accessor_normal_m1-PolyGem25_-306134",
			"type" : "VEC3"
		},
		{
			"bufferView" : 1,
			"byteOffset" : 0,
			"componentType" : 5126,
			"count" : 5020,
			"max" : 
			[
				1.987357,
				1.846255,
				0.9645749
			],
			"min" : 
			[
				0.696933,
				1.449967,
				-0.04624847
			],
			"name" : "accessor_position_m0-PolyPaper20_-306154",
			"type" : "VEC3"
		},
		{
			"bufferView" : 1,
			"byteOffset" : 120480,
			"componentType" : 5126,
			"count" : 38,
			"max" : 
			[
				1.100014,
				1.699978,
				0.4999691
			],
			"min" : 
			[
				0.9150145,
				1.604978,
				0.4099688
			],
			"name" : "accessor_position_m1-PolyGem25_-306134",
			"type" : "VEC3"
		}
	],
	"asset" : 
	{
		"copyright" : "Unknown",
		"generator" : "glTF 1-to-2 Upgrader for Google Blocks",
		"version" : "2.0"
	},
	"bufferViews" : 
	[
		{
			"buffer" : 0,
			"byteLength" : 15516,
			"byteOffset" : 0,
			"name" : "ushortBufferView",
			"target" : 34963
		},
		{
			"buffer" : 0,
			"byteLength" : 121392,
			"byteOffset" : 15516,
			"byteStride" : 12,
			"name" : "vec3BufferView",
			"target" : 34962
		},
		{
			"buffer" : 0,
			"byteLength" : 80928,
			"byteOffset" : 136908,
			"byteStride" : 16,
			"name" : "vec4BufferView",
			"target" : 34962
		}
	],
	"buffers" : 
	[
		{
			"byteLength" : 217836,
			"name" : "model",
			"uri" : "model.bin"
		}
	],
	"materials" : 
	[
		{
			"alphaMode" : "OPAQUE",
			"doubleSided" : false,
			"name" : "BlocksPaper",
			"pbrMetallicRoughness" : 
			{
				"baseColorFactor" : 
				[
					1,
					1,
					1,
					1
				],
				"metallicFactor" : 0,
				"roughnessFactor" : 0.6
			}
		},
		{
			"alphaMode" : "BLEND",
			"doubleSided" : false,
			"name" : "BlocksGlass",
			"pbrMetallicRoughness" : 
			{
				"baseColorFactor" : 
				[
					0.2,
					0.2,
					1,
					0.3
				],
				"metallicFactor" : 1,
				"roughnessFactor" : 0.4
			}
		},
		{
			"alphaMode" : "OPAQUE",
			"doubleSided" : true,
			"name" : "BlocksGem",
			"pbrMetallicRoughness" : 
			{
				"baseColorFactor" : 
				[
					1,
					0.4,
					1,
					1
				],
				"metallicFactor" : 0,
				"roughnessFactor" : 0.1
			}
		}
	],
	"meshes" : 
	[
		{
			"name" : "mesh_m0-PolyPaper20_-306154",
			"primitives" : 
			[
				{
					"attributes" : 
					{
						"COLOR_0" : 0,
						"NORMAL" : 4,
						"POSITION" : 6
					},
					"indices" : 2,
					"material" : 0,
					"mode" : 4
				}
			]
		},
		{
			"name" : "mesh_m1-PolyGem25_-306134",
			"primitives" : 
			[
				{
					"attributes" : 
					{
						"COLOR_0" : 1,
						"NORMAL" : 5,
						"POSITION" : 7
					},
					"indices" : 3,
					"material" : 2,
					"mode" : 4
				}
			]
		}
	],
	"nodes" : 
	[
		{
			"matrix" : 
			[
				1,
				0,
				0,
				0,
				0,
				1,
				0,
				0,
				0,
				0,
				1,
				0,
				0,
				0,
				0,
				1
			],
			"mesh" : 1,
			"name" : "node_MeshObject-1387142848-PolyGem25"
		},
		{
			"matrix" : 
			[
				1,
				0,
				0,
				0,
				0,
				1,
				0,
				0,
				0,
				0,
				1,
				0,
				0,
				0,
				0,
				1
			],
			"mesh" : 0,
			"name" : "node_MeshObject-1905862912-PolyPaper20"
		}
	],
	"scene" : 0,
	"scenes" : 
	[
		{
			"extras" : {},
			"name" : "defaultScene",
			"nodes" : 
			[
				1,
				0
			]
		}
	]
}